<svg id="visual" viewBox="0 0 960 540" width="960" height="540" xmlns="http://www.w3.org/2000/svg" xmlns:xlink="http://www.w3.org/1999/xlink" version="1.1"><rect x="0" y="0" width="960" height="540" fill="#ffffff"></rect><path d="M0 214L22.8 205.8C45.7 197.7 91.3 181.3 137 182.2C182.7 183 228.3 201 274 206.3C319.7 211.7 365.3 204.3 411.2 205.5C457 206.7 503 216.3 548.8 202.8C594.7 189.3 640.3 152.7 686 149.3C731.7 146 777.3 176 823 197.3C868.7 218.7 914.3 231.3 937.2 237.7L960 244L960 0L937.2 0C914.3 0 868.7 0 823 0C777.3 0 731.7 0 686 0C640.3 0 594.7 0 548.8 0C503 0 457 0 411.2 0C365.3 0 319.7 0 274 0C228.3 0 182.7 0 137 0C91.3 0 45.7 0 22.8 0L0 0Z" fill="#cccccc"></path><path d="M0 131L22.8 143.5C45.7 156 91.3 181 137 191C182.7 201 228.3 196 274 179.3C319.7 162.7 365.3 134.3 411.2 121C457 107.7 503 109.3 548.8 124.3C594.7 139.3 640.3 167.7 686 168.5C731.7 169.3 777.3 142.7 823 138.3C868.7 134 914.3 152 937.2 161L960 170L960 0L937.2 0C914.3 0 868.7 0 823 0C777.3 0 731.7 0 686 0C640.3 0 594.7 0 548.8 0C503 0 457 0 411.2 0C365.3 0 319.7 0 274 0C228.3 0 182.7 0 137 0C91.3 0 45.7 0 22.8 0L0 0Z" fill="#b4a1c6"></path><path d="M0 162L22.8 153.2C45.7 144.3 91.3 126.7 137 109.7C182.7 92.7 228.3 76.3 274 76C319.7 75.7 365.3 91.3 411.2 104.2C457 117 503 127 548.8 128.2C594.7 129.3 640.3 121.7 686 119.8C731.7 118 777.3 122 823 119C868.7 116 914.3 106 937.2 101L960 96L960 0L937.2 0C914.3 0 868.7 0 823 0C777.3 0 731.7 0 686 0C640.3 0 594.7 0 548.8 0C503 0 457 0 411.2 0C365.3 0 319.7 0 274 0C228.3 0 182.7 0 137 0C91.3 0 45.7 0 22.8 0L0 0Z" fill="#9977bf"></path><path d="M0 114L22.8 113.2C45.7 112.3 91.3 110.7 137 112C182.7 113.3 228.3 117.7 274 111.8C319.7 106 365.3 90 411.2 78.5C457 67 503 60 548.8 63C594.7 66 640.3 79 686 77.7C731.7 76.3 777.3 60.7 823 60.3C868.7 60 914.3 75 937.2 82.5L960 90L960 0L937.2 0C914.3 0 868.7 0 823 0C777.3 0 731.7 0 686 0C640.3 0 594.7 0 548.8 0C503 0 457 0 411.2 0C365.3 0 319.7 0 274 0C228.3 0 182.7 0 137 0C91.3 0 45.7 0 22.8 0L0 0Z" fill="#7b4db7"></path><path d="M0 47L22.8 43.7C45.7 40.3 91.3 33.7 137 37.8C182.7 42 228.3 57 274 59.2C319.7 61.3 365.3 50.7 411.2 43.7C457 36.7 503 33.3 548.8 32.5C594.7 31.7 640.3 33.3 686 31.5C731.7 29.7 777.3 24.3 823 27.5C868.7 30.7 914.3 42.3 937.2 48.2L960 54L960 0L937.2 0C914.3 0 868.7 0 823 0C777.3 0 731.7 0 686 0C640.3 0 594.7 0 548.8 0C503 0 457 0 411.2 0C365.3 0 319.7 0 274 0C228.3 0 182.7 0 137 0C91.3 0 45.7 0 22.8 0L0 0Z" fill="#571dae"></path></svg>