<?xml version="1.0" standalone="no"?><svg xmlns="http://www.w3.org/2000/svg" viewBox="0 0 1440 320"><path fill="#3f51b5" fill-opacity="1" d="M0,160L24,170.7C48,181,96,203,144,192C192,181,240,139,288,117.3C336,96,384,96,432,128C480,160,528,224,576,218.7C624,213,672,139,720,128C768,117,816,171,864,192C912,213,960,203,1008,202.7C1056,203,1104,213,1152,229.3C1200,245,1248,267,1296,256C1344,245,1392,203,1416,181.3L1440,160L1440,0L1416,0C1392,0,1344,0,1296,0C1248,0,1200,0,1152,0C1104,0,1056,0,1008,0C960,0,912,0,864,0C816,0,768,0,720,0C672,0,624,0,576,0C528,0,480,0,432,0C384,0,336,0,288,0C240,0,192,0,144,0C96,0,48,0,24,0L0,0Z"></path></svg>